<svg width="512" height="512" viewBox="0 0 512 512" fill="none" xmlns="http://www.w3.org/2000/svg">
<path d="M452 40H428V0H388V40H124V0H84V40H60C26.9141 40 0 66.9141 0 100V452C0 485.086 26.9141 512 60 512H452C485.086 512 512 485.086 512 452V100C512 66.9141 485.086 40 452 40ZM60 80H84V120H124V80H388V120H428V80H452C463.027 80 472 88.9727 472 100V148H40V100C40 88.9727 48.9727 80 60 80ZM452 472H60C48.9727 472 40 463.027 40 452V188H472V452C472 463.027 463.027 472 452 472ZM76 230H116V270H76V230ZM156 230H196V270H156V230ZM236 230H276V270H236V230ZM356 270H316V230H356V270ZM436 270H396V230H436V270ZM76 310H116V350H76V310ZM156 310H196V350H156V310ZM236 310H276V350H236V310ZM76 390H116V430H76V390ZM156 390H196V430H156V390ZM236 390H276V430H236V390ZM442 354.949L409 386.48L416.789 431L376 409.98L335.211 431L343 386.48L310 354.949L355.605 348.457L376 307.949L396.395 348.453L442 354.949Z" fill="#6A39CC"/>
<path d="M374.5 299L398.549 346.381L453.913 353.242L413.412 389.386L423.58 441.008L374.5 415.965L325.42 441.008L335.588 389.386L295.087 353.242L350.451 346.381L374.5 299Z" fill="#4BF2AF"/>
</svg>
