<svg width="512" height="512" viewBox="0 0 512 512" fill="none" xmlns="http://www.w3.org/2000/svg">
<path d="M426.667 0C379.615 0 341.334 38.281 341.334 85.333C341.334 126.147 401.803 208.752 415.971 227.553C415.967 233.626 415.971 239.589 415.824 245.062C415.668 250.947 420.314 255.854 426.209 256.01C426.303 256.01 426.397 256.01 426.501 256.01C432.251 256.01 437.001 251.416 437.157 245.625C437.304 240.009 437.3 233.879 437.304 227.633C451.378 208.961 512 126.195 512 85.333C512 38.281 473.719 0 426.667 0ZM426.667 106.667C414.907 106.667 405.334 97.094 405.334 85.334C405.334 73.574 414.907 64.001 426.667 64.001C438.427 64.001 448 73.573 448 85.333C448 97.094 438.427 106.667 426.667 106.667Z" fill="#6A39CC"/>
<path d="M326.5 307.427C308.896 317.417 299.115 334.76 293.281 346.927C290.729 352.24 292.968 358.615 298.281 361.156C299.771 361.875 301.344 362.208 302.885 362.208C306.864 362.208 310.677 359.979 312.51 356.156C319.916 340.708 327.479 331.406 337.041 325.968C342.156 323.062 343.958 316.551 341.041 311.426C338.146 306.302 331.656 304.5 326.5 307.427Z" fill="black"/>
<path d="M229.427 462.281C218.739 470.75 206.594 477.125 192.281 481.781C186.677 483.604 183.614 489.625 185.437 495.229C186.906 499.729 191.083 502.594 195.583 502.594C196.677 502.594 197.791 502.427 198.885 502.073C215.416 496.698 230.145 488.938 242.677 479.01C247.292 475.343 248.073 468.635 244.417 464.02C240.729 459.417 234.031 458.594 229.427 462.281Z" fill="black"/>
<path d="M289.573 384.438C284.052 382.292 277.906 385.032 275.771 390.532C270.99 402.886 265.011 417.292 256.948 430.49C253.875 435.521 255.469 442.084 260.49 445.157C262.23 446.22 264.146 446.72 266.042 446.72C269.636 446.72 273.146 444.907 275.157 441.616C284.095 426.97 290.542 411.47 295.667 398.241C297.792 392.75 295.063 386.573 289.573 384.438Z" fill="black"/>
<path d="M422.708 281.021C417.864 277.74 411.208 279 407.895 283.875C404.385 289.063 397.197 296.198 375.457 298.146C369.592 298.677 365.259 303.854 365.79 309.729C366.29 315.271 370.946 319.437 376.405 319.437C376.728 319.437 377.051 319.427 377.374 319.395C400.468 317.322 416.228 309.614 425.562 295.832C428.865 290.958 427.583 284.323 422.708 281.021Z" fill="black"/>
<path d="M153.275 490.805C186.932 454.913 256 372.341 256 298.667C256 226.896 199.771 170.667 128 170.667C56.229 170.667 0 226.896 0 298.667C0 393.282 114.068 502.813 120.443 508.857C120.443 508.857 120.469 508.883 120.481 508.895C120.516 508.928 120.65 509.058 120.678 509.084C121.119 509.503 121.669 509.697 122.158 510.025C122.763 510.433 123.31 510.914 123.995 511.193C125.28 511.715 126.634 512 128 512C135.771 512 143.156 511.729 150.156 511.198C156.031 510.75 160.437 505.635 159.989 499.76C159.669 495.556 156.948 492.277 153.275 490.805ZM128 362.667C92.708 362.667 64 333.959 64 298.667C64 263.375 92.708 234.667 128 234.667C163.292 234.667 192 263.375 192 298.667C192 333.958 163.292 362.667 128 362.667Z" fill="#4BF2AF"/>
</svg>
