<svg width="576" height="448" viewBox="0 0 576 448" fill="none" xmlns="http://www.w3.org/2000/svg">
<path d="M528 0H48C21.5 0 0 21.5 0 48V400C0 426.5 21.5 448 48 448H528C554.5 448 576 426.5 576 400V48C576 21.5 554.5 0 528 0ZM528 400H48V48H528V400ZM208 224C243.3 224 272 195.3 272 160C272 124.7 243.3 96 208 96C172.7 96 144 124.7 144 160C144 195.3 172.7 224 208 224ZM118.4 352H297.6C310 352 320 343.4 320 332.8V313.6C320 281.8 289.9 256 252.8 256C242 256 234.1 264 208 264C181.1 264 174.6 256 163.2 256C126.1 256 96 281.8 96 313.6V332.8C96 343.4 106 352 118.4 352ZM360 288H472C476.4 288 480 284.4 480 280V264C480 259.6 476.4 256 472 256H360C355.6 256 352 259.6 352 264V280C352 284.4 355.6 288 360 288ZM360 224H472C476.4 224 480 220.4 480 216V200C480 195.6 476.4 192 472 192H360C355.6 192 352 195.6 352 200V216C352 220.4 355.6 224 360 224ZM360 160H472C476.4 160 480 156.4 480 152V136C480 131.6 476.4 128 472 128H360C355.6 128 352 131.6 352 136V152C352 156.4 355.6 160 360 160Z" fill="#4BF2AF"/>
<ellipse cx="208" cy="160" rx="66" ry="64" fill="#6A39CC"/>
<rect x="352" y="128" width="128" height="32" rx="3" fill="#6A39CC"/>
</svg>
