<svg width="341" height="341" viewBox="0 0 341 341" fill="none" xmlns="http://www.w3.org/2000/svg">
<circle cx="170.5" cy="170.5" r="170.5" fill="#4BF2AF"/>
<path d="M170.589 101.071L72.3797 182.034C72.3797 182.148 72.351 182.317 72.2935 182.546C72.2373 182.773 72.2074 182.938 72.2074 183.055V265.04C72.2074 268 73.2896 270.565 75.4535 272.725C77.6167 274.887 80.1784 275.974 83.1391 275.974H148.725V210.385H192.455V275.977H258.04C261 275.977 263.565 274.891 265.726 272.725C267.889 270.567 268.975 268 268.975 265.04V183.055C268.975 182.601 268.913 182.257 268.803 182.034L170.589 101.071Z" fill="white"/>
<path d="M306.375 163.587L268.972 132.501V62.8128C268.972 61.2197 268.459 59.9096 267.432 58.8842C266.412 57.86 265.102 57.3479 263.505 57.3479H230.712C229.117 57.3479 227.807 57.86 226.781 58.8842C225.758 59.9096 225.246 61.2203 225.246 62.8128V96.119L183.571 61.2742C179.932 58.3134 175.604 56.8334 170.593 56.8334C165.583 56.8334 161.256 58.3134 157.612 61.2742L34.8015 163.587C33.663 164.496 33.039 165.72 32.923 167.258C32.8075 168.794 33.2054 170.136 34.1177 171.274L44.7072 183.913C45.6195 184.938 46.8136 185.564 48.2943 185.793C49.6613 185.908 51.0283 185.508 52.3953 184.598L170.589 86.0415L288.785 184.597C289.698 185.392 290.891 185.788 292.372 185.788H292.885C294.363 185.563 295.555 184.933 296.472 183.911L307.063 171.273C307.974 170.133 308.373 168.793 308.254 167.255C308.137 165.722 307.511 164.498 306.375 163.587Z" fill="white"/>
</svg>
