<svg width="512" height="467" viewBox="0 0 512 467" fill="none" xmlns="http://www.w3.org/2000/svg">
<rect width="512" height="467" fill="#FFFCFC"/>
<circle cx="256" cy="31.137" r="27" fill="#4BF2AF"/>
<path d="M410.508 79.9224L410.595 79.956H410.688H489.149C501.473 79.956 511.5 89.9831 511.5 102.307V392.009C511.5 399.291 507.998 405.771 502.588 409.855L502.141 410.192L502.526 410.598C508.082 416.464 511.5 424.372 511.5 433.067C511.5 451.102 496.828 465.774 478.793 465.774H33.207C15.1721 465.774 0.5 451.102 0.5 433.067C0.5 424.371 3.91789 416.463 9.474 410.598L9.85855 410.192L9.41227 409.855C4.00152 405.77 0.5 399.291 0.5 392.009V102.307C0.5 89.9831 10.5271 79.956 22.851 79.956H101.312H101.405L101.492 79.9224L225.56 32.0144L225.89 31.8869L225.88 31.5331C225.877 31.4489 225.874 31.3668 225.872 31.2859C225.864 31.0671 225.857 30.8577 225.857 30.643C225.857 14.0221 239.379 0.5 256 0.5C272.621 0.5 286.143 14.0231 286.143 30.643C286.143 30.8573 286.136 31.0673 286.128 31.2867C286.126 31.3673 286.123 31.4492 286.12 31.5331L286.11 31.8869L286.44 32.0144L410.508 79.9224ZM229.95 45.7781L229.735 45.4101L229.338 45.5636L142.774 78.9896L142.954 79.956H369.046L369.226 78.9896L282.662 45.5636L282.265 45.4101L282.05 45.7781C276.82 54.7455 267.104 60.786 256 60.786C244.896 60.786 235.18 54.7455 229.95 45.7781ZM205.823 399.852L205.815 400.36H206.323H372.953C376.819 400.36 379.953 403.494 379.953 407.36C379.953 411.226 376.819 414.36 372.953 414.36H191.148H82.517H33.207C22.8908 414.36 14.5 422.752 14.5 433.067C14.5 443.383 22.8909 451.774 33.207 451.774H478.793C489.109 451.774 497.5 443.383 497.5 433.067C497.5 422.751 489.109 414.36 478.793 414.36H400.952C397.086 414.36 393.952 411.226 393.952 407.36C393.952 403.494 397.086 400.36 400.952 400.36H489.149C493.754 400.36 497.5 396.614 497.5 392.009V102.307C497.5 97.7019 493.754 93.956 489.149 93.956H102.755H102.754H102.751H102.747H102.74H102.732H102.722H102.71H102.696H102.681H102.664H102.645H102.624H102.602H102.578H102.552H102.524H102.495H102.464H102.432H102.397H102.361H102.323H102.284H102.243H102.2H102.156H102.11H102.062H102.013H101.962H101.909H101.855H101.799H101.742H101.683H101.623H101.561H101.497H101.432H101.365H101.297H101.227H101.156H101.083H101.008H100.933H100.855H100.776H100.696H100.614H100.531H100.446H100.36H100.272H100.183H100.093H100.001H99.9072H99.8123H99.7161H99.6185H99.5195H99.4191H99.3173H99.2142H99.1097H99.0038H98.8966H98.788H98.6781H98.5669H98.4543H98.3405H98.2253H98.1088H97.9911H97.872H97.7517H97.6301H97.5073H97.3832H97.2578H97.1312H97.0033H96.8743H96.744H96.6125H96.4798H96.3458H96.2107H96.0745H95.937H95.7983H95.6585H95.5176H95.3755H95.2322H95.0878H94.9423H94.7957H94.6479H94.4991H94.3491H94.1981H94.0459H93.8927H93.7384H93.5831H93.4267H93.2692H93.1107H92.9512H92.7906H92.629H92.4665H92.3028H92.1382H91.9726H91.8061H91.6385H91.47H91.3005H91.13H90.9586H90.7863H90.613H90.4388H90.2637H90.0876H89.9107H89.7328H89.5541H89.3745H89.194H89.0126H88.8303H88.6472H88.4633H88.2785H88.0929H87.9064H87.7191H87.5311H87.3422H87.1525H86.962H86.7707H86.5787H86.3858H86.1922H85.9979H85.8028H85.607H85.4104H85.2131H85.0151H84.8163H84.6169H84.4168H84.2159H84.0144H83.8122H83.6093H83.4058H83.2016H82.9968H82.7913H82.5852H82.3784H82.1711H81.9631H81.7545H81.5453H81.3355H81.1252H80.9142H80.7027H80.4906H80.278H80.0648H79.8511H79.6368H79.422H79.2067H78.9909H78.7745H78.5577H78.3404H78.1226H77.9043H77.6855H77.4663H77.2466H77.0265H76.8059H76.5849H76.3634H76.1416H75.9193H75.6966H75.4735H75.2501H75.0262H74.802H74.5774H74.3524H74.1271H73.9014H73.6754H73.449H73.2223H72.9953H72.768H72.5404H72.3124H72.0842H71.8557H71.6269H71.3979H71.1685H70.939H70.7091H70.4791H70.2488H70.0182H69.7875H69.5565H69.3253H69.0939H68.8624H68.6306H68.3987H68.1666H67.9343H67.7019H67.4693H67.2366H67.0038H66.7708H66.5377H66.3045H66.0711H65.8377H65.6042H65.3706H65.1369H64.9032H64.6693H64.4355H64.2016H63.9676H63.7336H63.4996H63.2655H63.0314H62.7974H62.5633H62.3292H62.0952H61.8612H61.6272H61.3932H61.1593H60.9254H60.6916H60.4579H60.2242H59.9906H59.7571H59.5237H59.2903H59.0571H58.824H58.5911H58.3582H58.1255H57.8929H57.6605H57.4282H57.1962H56.9642H56.7325H56.5009H56.2696H56.0384H55.8074H55.5767H55.3462H55.1159H54.8858H54.656H54.4264H54.1971H53.9681H53.7393H53.5108H53.2826H53.0547H52.8271H52.5998H52.3728H52.1461H51.9198H51.6938H51.4681H51.2428H51.0178H50.7932H50.569H50.3452H50.1217H49.8987H49.676H49.4537H49.2319H49.0105H48.7895H48.5689H48.3488H48.1292H47.91H47.6912H47.473H47.2552H47.0379H46.8211H46.6047H46.3889H46.1736H45.9589H45.7446H45.5309H45.3178H45.1052H44.8931H44.6816H44.4707H44.2604H44.0506H43.8415H43.6329H43.4249H43.2176H43.0109H42.8048H42.5994H42.3946H42.1904H41.9869H41.7841H41.5819H41.3804H41.1796H40.9795H40.7801H40.5814H40.3834H40.1861H39.9896H39.7938H39.5987H39.4044H39.2109H39.0181H38.8261H38.6348H38.4444H38.2547H38.0659H37.8778H37.6906H37.5042H37.3186H37.1338H36.9499H36.7669H36.5847H36.4033H36.2229H36.0433H35.8646H35.6868H35.5099H35.3339H35.1588H34.9846H34.8114H34.6391H34.4678H34.2973H34.1279H33.9594H33.7919H33.6254H33.4598H33.2953H33.1317H32.9692H32.8076H32.6471H32.4876H32.3292H32.1718H32.0154H31.8601H31.7059H31.5527H31.4006H31.2497H31.0997H30.9509H30.8032H30.6567H30.5112H30.3669H30.2237H30.0816H29.9407H29.801H29.6624H29.525H29.3887H29.2537H29.1198H28.9872H28.8557H28.7255H28.5965H28.4687H28.3422H28.2169H28.0928H27.97H27.8485H27.7282H27.6092H27.4915H27.3751H27.26H27.1462H27.0337H26.9226H26.8127H26.7042H26.5971H26.4913H26.3868H26.2838H26.182H26.0817H25.9828H25.8852H25.7891H25.6943H25.601H25.5091H25.4186H25.3295H25.2419H25.1558H25.0711H24.9879H24.9061H24.8258H24.747H24.6697H24.5939H24.5196H24.4468H24.3756H24.3058H24.2376H24.171H24.1059H24.0423H23.9803H23.9199H23.8611H23.8038H23.7482H23.6941H23.6417H23.5909H23.5416H23.4941H23.4481H23.4038H23.3612H23.3202H23.2808H23.2432H23.2072H23.1729H23.1403H23.1094H23.0802H23.0527H23.0269H23.0029H22.9806H22.96H22.9412H22.9242H22.9089H22.8954H22.8837H22.8737H22.8656H22.8592H22.8546H22.8519C22.8513 93.956 22.851 93.956 22.851 94.456V93.956C18.2459 93.956 14.5 97.7019 14.5 102.307V392.008C14.5 396.613 18.2459 400.359 22.851 400.359H67.341H67.841V399.859C67.841 399.807 67.8372 399.758 67.8352 399.73C67.8339 399.713 67.8331 399.701 67.8327 399.693C67.8322 399.684 67.832 399.679 67.832 399.674V384.859V384.359H67.332H37.5C33.6341 384.359 30.5 381.225 30.5 377.359V116.956C30.5 113.09 33.6341 109.956 37.5 109.956H474.5C478.366 109.956 481.5 113.09 481.5 116.956V377.36C481.5 381.226 478.366 384.36 474.5 384.36H206.332H205.832V384.86V399.675C205.832 399.68 205.832 399.685 205.832 399.691C205.831 399.701 205.83 399.714 205.829 399.733C205.828 399.744 205.827 399.759 205.826 399.776C205.825 399.799 205.823 399.825 205.823 399.852ZM67.332 370.36H67.832V369.86V354.642C67.832 346.545 74.4201 339.957 82.517 339.957H191.147C199.245 339.957 205.832 346.544 205.832 354.641V369.859V370.359H206.332H467H467.5V369.859V124.456V123.956H467H45H44.5V124.456V369.86V370.36H45H67.332ZM191.832 384.658V384.158H191.332H155.36C151.494 384.158 148.36 381.024 148.36 377.158C148.36 373.292 151.494 370.158 155.36 370.158H191.333H191.833V369.658V354.641C191.833 354.263 191.526 353.956 191.148 353.956H82.517C82.1388 353.956 81.832 354.263 81.832 354.641V369.658V370.158H82.332H127.359C131.225 370.158 134.359 373.292 134.359 377.158C134.359 381.024 131.225 384.158 127.359 384.158H82.332H81.832V384.658V399.675C81.832 400.053 82.1388 400.36 82.517 400.36H191.147C191.525 400.36 191.832 400.053 191.832 399.675V384.658ZM272.143 30.643C272.143 21.7408 264.901 14.5 256 14.5C247.099 14.5 239.857 21.7398 239.857 30.642C239.857 39.5442 247.099 46.785 256 46.785C264.901 46.785 272.143 39.5452 272.143 30.643Z" fill="black" stroke="black"/>
<path d="M203.78 265.7C204.527 267.38 204.9 268.873 204.9 270.18C204.9 272.793 203.827 275.033 201.68 276.9C199.627 278.673 197.247 279.56 194.54 279.56C192.767 279.56 191.087 279.093 189.5 278.16C187.913 277.133 186.7 275.64 185.86 273.68L178.44 257.16H130.98L123.56 273.68C122.72 275.64 121.507 277.133 119.92 278.16C118.427 279.093 116.747 279.56 114.88 279.56C112.173 279.56 109.747 278.673 107.6 276.9C105.453 275.033 104.38 272.793 104.38 270.18C104.38 268.873 104.753 267.38 105.5 265.7L143.3 186.32C144.327 184.08 145.867 182.4 147.92 181.28C149.973 180.067 152.167 179.46 154.5 179.46C156.927 179.46 159.167 180.067 161.22 181.28C163.273 182.493 164.86 184.173 165.98 186.32L203.78 265.7ZM138.4 240.64H171.02L154.78 204.24L138.4 240.64ZM285.858 227.9C291.552 229.58 295.938 232.52 299.018 236.72C302.192 240.827 303.778 245.913 303.778 251.98C303.778 260.287 300.698 266.867 294.538 271.72C288.472 276.573 280.072 279 269.338 279H232.658C229.392 279 226.872 278.113 225.098 276.34C223.325 274.567 222.438 272.047 222.438 268.78V190.52C222.438 187.253 223.325 184.733 225.098 182.96C226.872 181.187 229.392 180.3 232.658 180.3H267.938C278.205 180.3 286.325 182.587 292.298 187.16C298.365 191.733 301.398 197.987 301.398 205.92C301.398 211.053 299.998 215.58 297.198 219.5C294.492 223.327 290.712 226.127 285.858 227.9ZM243.718 220.48H264.298C269.898 220.48 274.005 219.547 276.618 217.68C279.325 215.72 280.678 212.78 280.678 208.86C280.678 204.753 279.325 201.767 276.618 199.9C274.005 197.94 269.898 196.96 264.298 196.96H243.718V220.48ZM266.818 262.34C272.605 262.34 276.805 261.36 279.418 259.4C282.032 257.44 283.338 254.267 283.338 249.88C283.338 245.493 282.032 242.273 279.418 240.22C276.805 238.167 272.605 237.14 266.818 237.14H243.718V262.34H266.818ZM369.823 280.26C360.117 280.26 351.623 278.207 344.343 274.1C337.063 269.993 331.463 264.113 327.543 256.46C323.623 248.807 321.663 239.847 321.663 229.58C321.663 219.313 323.623 210.4 327.543 202.84C331.463 195.187 337.063 189.307 344.343 185.2C351.623 181.093 360.117 179.04 369.823 179.04C382.05 179.04 392.597 182.4 401.463 189.12C402.863 190.24 403.843 191.36 404.403 192.48C404.963 193.6 405.243 195 405.243 196.68C405.243 199.107 404.543 201.207 403.143 202.98C401.837 204.66 400.203 205.5 398.243 205.5C396.937 205.5 395.77 205.36 394.743 205.08C393.81 204.707 392.737 204.1 391.523 203.26C387.79 200.833 384.337 199.107 381.163 198.08C377.99 196.96 374.583 196.4 370.943 196.4C361.983 196.4 355.217 199.2 350.643 204.8C346.163 210.307 343.923 218.567 343.923 229.58C343.923 251.793 352.93 262.9 370.943 262.9C374.397 262.9 377.663 262.387 380.743 261.36C383.823 260.24 387.417 258.467 391.523 256.04C392.923 255.2 394.09 254.64 395.023 254.36C395.957 253.987 397.03 253.8 398.243 253.8C400.203 253.8 401.837 254.687 403.143 256.46C404.543 258.14 405.243 260.193 405.243 262.62C405.243 264.3 404.917 265.747 404.263 266.96C403.703 268.08 402.77 269.153 401.463 270.18C392.597 276.9 382.05 280.26 369.823 280.26Z" fill="#6A39CC"/>
</svg>
