<svg width="52" height="12" viewBox="0 0 52 12" fill="none" xmlns="http://www.w3.org/2000/svg">
<path d="M4.828 7.956C5.228 7.98 5.428 8.16 5.428 8.496C5.428 8.688 5.348 8.836 5.188 8.94C5.036 9.036 4.816 9.076 4.528 9.06L4.204 9.036C2.86 8.94 2.188 8.22 2.188 6.876V4.26H1.588C1.372 4.26 1.204 4.212 1.084 4.116C0.972 4.02 0.916 3.88 0.916 3.696C0.916 3.512 0.972 3.372 1.084 3.276C1.204 3.18 1.372 3.132 1.588 3.132H2.188V2.028C2.188 1.812 2.256 1.64 2.392 1.512C2.528 1.384 2.712 1.32 2.944 1.32C3.168 1.32 3.348 1.384 3.484 1.512C3.62 1.64 3.688 1.812 3.688 2.028V3.132H4.708C4.924 3.132 5.088 3.18 5.2 3.276C5.32 3.372 5.38 3.512 5.38 3.696C5.38 3.88 5.32 4.02 5.2 4.116C5.088 4.212 4.924 4.26 4.708 4.26H3.688V6.984C3.688 7.576 3.96 7.892 4.504 7.932L4.828 7.956ZM10.8537 7.392C10.9897 7.392 11.0977 7.444 11.1777 7.548C11.2657 7.652 11.3097 7.792 11.3097 7.968C11.3097 8.216 11.1617 8.424 10.8657 8.592C10.5937 8.744 10.2857 8.868 9.94169 8.964C9.59769 9.052 9.26969 9.096 8.95769 9.096C8.01369 9.096 7.26569 8.824 6.71369 8.28C6.16169 7.736 5.88569 6.992 5.88569 6.048C5.88569 5.448 6.00569 4.916 6.24569 4.452C6.48569 3.988 6.82169 3.628 7.25369 3.372C7.69369 3.116 8.18969 2.988 8.74169 2.988C9.26969 2.988 9.72969 3.104 10.1217 3.336C10.5137 3.568 10.8177 3.896 11.0337 4.32C11.2497 4.744 11.3577 5.244 11.3577 5.82C11.3577 6.164 11.2057 6.336 10.9017 6.336H7.36169C7.40969 6.888 7.56569 7.296 7.82969 7.56C8.09369 7.816 8.47769 7.944 8.98169 7.944C9.23769 7.944 9.46169 7.912 9.65369 7.848C9.85369 7.784 10.0777 7.696 10.3257 7.584C10.5657 7.456 10.7417 7.392 10.8537 7.392ZM8.77769 4.044C8.36969 4.044 8.04169 4.172 7.79369 4.428C7.55369 4.684 7.40969 5.052 7.36169 5.532H10.0737C10.0577 5.044 9.93769 4.676 9.71369 4.428C9.48969 4.172 9.17769 4.044 8.77769 4.044ZM15.1287 2.988C15.9447 2.988 16.5487 3.192 16.9407 3.6C17.3407 4 17.5407 4.612 17.5407 5.436V8.364C17.5407 8.58 17.4767 8.752 17.3487 8.88C17.2207 9 17.0447 9.06 16.8207 9.06C16.6127 9.06 16.4407 8.996 16.3047 8.868C16.1767 8.74 16.1127 8.572 16.1127 8.364V8.1C15.9767 8.412 15.7607 8.656 15.4647 8.832C15.1767 9.008 14.8407 9.096 14.4567 9.096C14.0647 9.096 13.7087 9.016 13.3887 8.856C13.0687 8.696 12.8167 8.476 12.6327 8.196C12.4487 7.916 12.3567 7.604 12.3567 7.26C12.3567 6.828 12.4647 6.488 12.6807 6.24C12.9047 5.992 13.2647 5.812 13.7607 5.7C14.2567 5.588 14.9407 5.532 15.8127 5.532H16.1127V5.256C16.1127 4.864 16.0287 4.58 15.8607 4.404C15.6927 4.22 15.4207 4.128 15.0447 4.128C14.8127 4.128 14.5767 4.164 14.3367 4.236C14.0967 4.3 13.8127 4.396 13.4847 4.524C13.2767 4.628 13.1247 4.68 13.0287 4.68C12.8847 4.68 12.7647 4.628 12.6687 4.524C12.5807 4.42 12.5367 4.284 12.5367 4.116C12.5367 3.98 12.5687 3.864 12.6327 3.768C12.7047 3.664 12.8207 3.568 12.9807 3.48C13.2607 3.328 13.5927 3.208 13.9767 3.12C14.3687 3.032 14.7527 2.988 15.1287 2.988ZM14.7567 8.016C15.1567 8.016 15.4807 7.884 15.7287 7.62C15.9847 7.348 16.1127 7 16.1127 6.576V6.324H15.8967C15.3607 6.324 14.9447 6.348 14.6487 6.396C14.3527 6.444 14.1407 6.528 14.0127 6.648C13.8847 6.768 13.8207 6.932 13.8207 7.14C13.8207 7.396 13.9087 7.608 14.0847 7.776C14.2687 7.936 14.4927 8.016 14.7567 8.016ZM21.6692 9.096C21.0852 9.096 20.5692 8.972 20.1212 8.724C19.6812 8.476 19.3412 8.124 19.1012 7.668C18.8612 7.212 18.7412 6.68 18.7412 6.072C18.7412 5.464 18.8652 4.928 19.1132 4.464C19.3692 3.992 19.7252 3.628 20.1812 3.372C20.6372 3.116 21.1612 2.988 21.7532 2.988C22.0652 2.988 22.3772 3.032 22.6892 3.12C23.0092 3.208 23.2892 3.328 23.5292 3.48C23.7852 3.648 23.9132 3.86 23.9132 4.116C23.9132 4.292 23.8692 4.436 23.7812 4.548C23.7012 4.652 23.5932 4.704 23.4572 4.704C23.3692 4.704 23.2772 4.684 23.1812 4.644C23.0852 4.604 22.9892 4.556 22.8932 4.5C22.7172 4.396 22.5492 4.316 22.3892 4.26C22.2292 4.196 22.0452 4.164 21.8372 4.164C21.3412 4.164 20.9572 4.328 20.6852 4.656C20.4212 4.976 20.2892 5.44 20.2892 6.048C20.2892 6.648 20.4212 7.112 20.6852 7.44C20.9572 7.76 21.3412 7.92 21.8372 7.92C22.0372 7.92 22.2132 7.892 22.3652 7.836C22.5252 7.772 22.7012 7.688 22.8932 7.584C23.0132 7.512 23.1172 7.46 23.2052 7.428C23.2932 7.388 23.3812 7.368 23.4692 7.368C23.5972 7.368 23.7052 7.424 23.7932 7.536C23.8812 7.648 23.9252 7.788 23.9252 7.956C23.9252 8.092 23.8932 8.212 23.8292 8.316C23.7732 8.412 23.6772 8.5 23.5412 8.58C23.2932 8.74 23.0052 8.868 22.6772 8.964C22.3492 9.052 22.0132 9.096 21.6692 9.096ZM28.3565 2.988C29.7325 2.988 30.4205 3.792 30.4205 5.4V8.352C30.4205 8.576 30.3525 8.752 30.2165 8.88C30.0885 9.008 29.9085 9.072 29.6765 9.072C29.4445 9.072 29.2605 9.008 29.1245 8.88C28.9885 8.752 28.9205 8.576 28.9205 8.352V5.4C28.9205 4.976 28.8325 4.668 28.6565 4.476C28.4885 4.276 28.2205 4.176 27.8525 4.176C27.4205 4.176 27.0725 4.312 26.8085 4.584C26.5525 4.856 26.4245 5.22 26.4245 5.676V8.352C26.4245 8.576 26.3565 8.752 26.2205 8.88C26.0845 9.008 25.9005 9.072 25.6685 9.072C25.4365 9.072 25.2525 9.008 25.1165 8.88C24.9885 8.752 24.9245 8.576 24.9245 8.352V1.176C24.9245 0.968 24.9925 0.8 25.1285 0.672C25.2725 0.544 25.4565 0.48 25.6805 0.48C25.9045 0.48 26.0845 0.539999 26.2205 0.659999C26.3565 0.78 26.4245 0.944 26.4245 1.152V3.948C26.6245 3.636 26.8885 3.4 27.2165 3.24C27.5525 3.072 27.9325 2.988 28.3565 2.988Z" fill="#6A39CC"/>
<path d="M34.4881 2.988C35.3041 2.988 35.9081 3.192 36.3001 3.6C36.7001 4 36.9001 4.612 36.9001 5.436V8.364C36.9001 8.58 36.8361 8.752 36.7081 8.88C36.5801 9 36.4041 9.06 36.1801 9.06C35.9721 9.06 35.8001 8.996 35.6641 8.868C35.5361 8.74 35.4721 8.572 35.4721 8.364V8.1C35.3361 8.412 35.1201 8.656 34.8241 8.832C34.5361 9.008 34.2001 9.096 33.8161 9.096C33.4241 9.096 33.0681 9.016 32.7481 8.856C32.4281 8.696 32.1761 8.476 31.9921 8.196C31.8081 7.916 31.7161 7.604 31.7161 7.26C31.7161 6.828 31.8241 6.488 32.0401 6.24C32.2641 5.992 32.6241 5.812 33.1201 5.7C33.6161 5.588 34.3001 5.532 35.1721 5.532H35.4721V5.256C35.4721 4.864 35.3881 4.58 35.2201 4.404C35.0521 4.22 34.7801 4.128 34.4041 4.128C34.1721 4.128 33.9361 4.164 33.6961 4.236C33.4561 4.3 33.1721 4.396 32.8441 4.524C32.6361 4.628 32.4841 4.68 32.3881 4.68C32.2441 4.68 32.1241 4.628 32.0281 4.524C31.9401 4.42 31.8961 4.284 31.8961 4.116C31.8961 3.98 31.9281 3.864 31.9921 3.768C32.0641 3.664 32.1801 3.568 32.3401 3.48C32.6201 3.328 32.9521 3.208 33.3361 3.12C33.7281 3.032 34.1121 2.988 34.4881 2.988ZM34.1161 8.016C34.5161 8.016 34.8401 7.884 35.0881 7.62C35.3441 7.348 35.4721 7 35.4721 6.576V6.324H35.2561C34.7201 6.324 34.3041 6.348 34.0081 6.396C33.7121 6.444 33.5001 6.528 33.3721 6.648C33.2441 6.768 33.1801 6.932 33.1801 7.14C33.1801 7.396 33.2681 7.608 33.4441 7.776C33.6281 7.936 33.8521 8.016 34.1161 8.016ZM41.7965 2.988C42.3005 2.988 42.7485 3.116 43.1405 3.372C43.5405 3.628 43.8485 3.992 44.0645 4.464C44.2885 4.928 44.4005 5.464 44.4005 6.072C44.4005 6.68 44.2885 7.212 44.0645 7.668C43.8485 8.124 43.5445 8.476 43.1525 8.724C42.7605 8.972 42.3085 9.096 41.7965 9.096C41.3805 9.096 41.0085 9.008 40.6805 8.832C40.3525 8.656 40.1005 8.412 39.9245 8.1V10.548C39.9245 10.756 39.8565 10.92 39.7205 11.04C39.5845 11.16 39.4045 11.22 39.1805 11.22C38.9565 11.22 38.7725 11.156 38.6285 11.028C38.4925 10.9 38.4245 10.732 38.4245 10.524V3.72C38.4245 3.504 38.4885 3.332 38.6165 3.204C38.7525 3.076 38.9325 3.012 39.1565 3.012C39.3805 3.012 39.5605 3.076 39.6965 3.204C39.8325 3.332 39.9005 3.504 39.9005 3.72V4.02C40.0765 3.692 40.3285 3.44 40.6565 3.264C40.9925 3.08 41.3725 2.988 41.7965 2.988ZM41.4005 7.932C41.8725 7.932 42.2405 7.772 42.5045 7.452C42.7685 7.124 42.9005 6.664 42.9005 6.072C42.9005 5.464 42.7685 4.992 42.5045 4.656C42.2405 4.32 41.8725 4.152 41.4005 4.152C40.9205 4.152 40.5485 4.316 40.2845 4.644C40.0285 4.972 39.9005 5.44 39.9005 6.048C39.9005 6.648 40.0285 7.112 40.2845 7.44C40.5485 7.768 40.9205 7.932 41.4005 7.932ZM49.0036 2.988C49.5076 2.988 49.9556 3.116 50.3476 3.372C50.7476 3.628 51.0556 3.992 51.2716 4.464C51.4956 4.928 51.6076 5.464 51.6076 6.072C51.6076 6.68 51.4956 7.212 51.2716 7.668C51.0556 8.124 50.7516 8.476 50.3596 8.724C49.9676 8.972 49.5156 9.096 49.0036 9.096C48.5876 9.096 48.2156 9.008 47.8876 8.832C47.5596 8.656 47.3076 8.412 47.1316 8.1V10.548C47.1316 10.756 47.0636 10.92 46.9276 11.04C46.7916 11.16 46.6116 11.22 46.3876 11.22C46.1636 11.22 45.9796 11.156 45.8356 11.028C45.6996 10.9 45.6316 10.732 45.6316 10.524V3.72C45.6316 3.504 45.6956 3.332 45.8236 3.204C45.9596 3.076 46.1396 3.012 46.3636 3.012C46.5876 3.012 46.7676 3.076 46.9036 3.204C47.0396 3.332 47.1076 3.504 47.1076 3.72V4.02C47.2836 3.692 47.5356 3.44 47.8636 3.264C48.1996 3.08 48.5796 2.988 49.0036 2.988ZM48.6076 7.932C49.0796 7.932 49.4476 7.772 49.7116 7.452C49.9756 7.124 50.1076 6.664 50.1076 6.072C50.1076 5.464 49.9756 4.992 49.7116 4.656C49.4476 4.32 49.0796 4.152 48.6076 4.152C48.1276 4.152 47.7556 4.316 47.4916 4.644C47.2356 4.972 47.1076 5.44 47.1076 6.048C47.1076 6.648 47.2356 7.112 47.4916 7.44C47.7556 7.768 48.1276 7.932 48.6076 7.932Z" fill="#646363"/>
</svg>
